<?xml version="1.0" encoding="utf-8"?>
<!-- Generator: Adobe Illustrator 23.0.1, SVG Export Plug-In . SVG Version: 6.00 Build 0)  -->
<svg version="1.1" id="Layer_1" xmlns="http://www.w3.org/2000/svg" xmlns:xlink="http://www.w3.org/1999/xlink" x="0px" y="0px"
	 viewBox="0 0 1326.7004 679.0516" style="enable-background:new 0 0 1326.7004 679.0516;" xml:space="preserve">
<style type="text/css">
	.st0{fill:#2D2B6F;}
	.st1{fill:#DF3B28;}
</style>
<g id="XMLID_1_">
	<g id="XMLID_16_">
		<g id="XMLID_17_">
			<g id="XMLID_29_">
				<path id="XMLID_40_" class="st0" d="M716.3969,334.6645c-6.3841-5.6421-14.5141-8.3846-24.8518-8.3846h-42.4349v96.8327h14.625
					v-35.332h27.8099c10.3986,0,18.5335-2.793,24.8677-8.5375c6.2111-5.6196,9.3605-13.0923,9.3605-22.2122
					C725.7733,347.9658,722.63,340.451,716.3969,334.6645z M691.5451,374.2692h-27.8099v-34.4779h27.8099
					c11.9934,0,19.7433,6.7667,19.7433,17.2396C711.2884,367.5025,703.5385,374.2692,691.5451,374.2692z"/>
				<path id="XMLID_39_" class="st0" d="M797.2535,380.5388c0,9.196-2.4221,16.6072-7.198,22.0276
					c-4.8283,5.482-10.9797,8.1471-18.8051,8.1471c-8.013,0-14.2546-2.6651-19.0829-8.1471
					c-4.8685-5.5264-7.3369-12.9375-7.3369-22.0276v-54.2589h-14.6238v54.2589c0,13.1185,3.8135,23.8777,11.3124,31.9535
					c7.3807,8.247,17.3832,12.4283,29.7311,12.4283c12.2553,0,22.2116-4.1813,29.5814-12.4167
					c7.3295-8.0478,11.0455-18.8027,11.0455-31.9651v-54.2589h-14.6238V380.5388z"/>
				<polygon id="XMLID_38_" class="st0" points="890.8698,397.821 832.6257,326.2799 820.4849,326.2799 820.4849,423.1126 
					835.1099,423.1126 835.1099,352.3616 893.3601,423.1126 905.4948,423.1126 905.4948,326.2799 890.8698,326.2799 				"/>
				<path id="XMLID_37_" class="st0" d="M983.8111,326.2799h-49.539v13.5114h34.914v47.5629c0,7.0183-1.9895,12.675-6.0807,17.2956
					c-3.945,4.4549-9.0511,6.6205-15.6094,6.6205c-11.9788,0-20.0929-7.7761-21.7036-20.8008l-0.2473-1.9938l-14.0329,3.1811
					l0.2449,1.6655c2.8265,19.195,16.8558,31.5983,35.7389,31.5983c10.7604,0,19.6251-3.5582,26.3637-10.5892
					c6.6034-7.0427,9.9514-16.1187,9.9514-26.9772V326.2799z"/>
				<path id="XMLID_34_" class="st0" d="M1023.7984,326.2799l-43.3572,96.8327h15.8129l10.4327-23.6468h46.7344l10.4327,23.6468
					h15.8129l-43.3572-96.8327H1023.7984z M1047.5134,385.9543h-34.9091l17.5136-39.7076L1047.5134,385.9543z"/>
				<path id="XMLID_30_" class="st0" d="M1145.707,373.4334c6.8739-3.5673,11.5658-11.6163,11.5658-20.8544
					c0-15.9761-11.5791-26.2991-29.4985-26.2991h-44.6609v96.8327h46.4689c18.9684,0,30.751-10.3974,30.751-27.1337
					C1160.3333,385.2483,1154.6509,376.7863,1145.707,373.4334z M1127.6354,368.0093h-29.897v-28.6347h29.0624
					c10.1184,0,16.4038,5.273,16.4038,13.7612C1143.2046,362.171,1137.0934,368.0093,1127.6354,368.0093z M1097.7384,380.5473
					h31.0093c10.2183,0,16.8217,5.6751,16.8217,14.4581c0,9.26-6.4987,15.0124-16.9606,15.0124h-30.8704V380.5473z"/>
			</g>
			<g id="XMLID_18_">
				<path id="XMLID_28_" class="st0" d="M728.0626,494.3161c-4.5956,14.3149-16.2856,22.5247-32.0705,22.5247
					c-9.9185,0-18.369-3.5563-25.1309-10.5837c-6.9518-7.0847-10.3303-15.4955-10.3303-25.7132
					c0-10.1671,3.4759-18.8648,10.3425-25.8636c6.6607-6.922,15.1111-10.4321,25.1187-10.4321
					c15.7581,0,27.7452,8.3609,32.0644,22.3658l0.5263,1.7075l14.0731-4.0741l-0.5556-1.7733
					c-3.0288-9.6603-8.7306-17.5558-16.9776-23.4867c-8.3384-5.7512-18.1399-8.6673-29.1306-8.6673
					c-13.9768,0-25.9691,4.9057-35.6426,14.5812c-9.6761,9.6748-14.5824,21.667-14.5824,35.6426
					c0,13.9756,4.9063,25.9678,14.5824,35.6439c9.6748,9.6754,21.667,14.5811,35.6426,14.5811
					c11.2063,0,21.0176-2.9697,29.1598-8.8269c8.2421-5.9278,13.9464-14.017,16.9545-24.044l0.5543-1.847l-14.084-3.3358
					L728.0626,494.3161z"/>
				<path id="XMLID_25_" class="st0" d="M795.5905,430.3201c-13.8843,0-25.8301,4.9057-35.5038,14.5812
					c-9.6761,9.6748-14.5823,21.667-14.5823,35.6426c0,13.9756,4.9062,25.9678,14.5823,35.6439
					c9.6749,9.6754,21.6207,14.5811,35.5038,14.5811c13.883,0,25.8288-4.9057,35.5037-14.5811
					c9.5835-9.5841,14.4435-21.5763,14.4435-35.6439c0-14.0682-4.86-26.0597-14.4435-35.6426
					C821.4206,435.2258,809.4747,430.3201,795.5905,430.3201z M820.5714,506.2698c-6.7545,7.0189-14.9259,10.4309-24.9809,10.4309
					c-10.0075,0-18.4592-3.5094-25.132-10.443c-6.7618-6.8959-10.1903-15.5473-10.1903-25.7138
					c0-10.1256,3.4321-18.8277,10.2025-25.8636c6.6619-6.922,15.1135-10.4321,25.1198-10.4321
					c10.0537,0,18.2252,3.4126,24.9809,10.4321c6.7703,7.0359,10.2024,15.738,10.2024,25.8636
					c0,10.1665-3.4284,18.8179-10.1902,25.7138L820.5714,506.2698z"/>
				<polygon id="XMLID_24_" class="st0" points="865.2931,432.1282 850.6681,432.1282 850.6681,528.9609 918.7077,528.9609 
					918.7077,515.3106 865.2931,515.3106 				"/>
				<polygon id="XMLID_23_" class="st0" points="938.462,432.1282 923.837,432.1282 923.837,528.9609 991.8766,528.9609 
					991.8766,515.3106 938.462,515.3106 				"/>
				<polygon id="XMLID_22_" class="st0" points="1011.632,487.0913 1064.4897,487.0913 1064.4897,473.5799 1011.632,473.5799 
					1011.632,445.6396 1068.5238,445.6396 1068.5238,432.1282 997.007,432.1282 997.007,528.9609 1068.6627,528.9609 
					1068.6627,515.3106 1011.632,515.3106 				"/>
				<path id="XMLID_21_" class="st0" d="M1169.879,474.1366h-55.0521v13.6504h40.9059c-1.3315,8.2914-4.8003,14.9685-10.563,20.3634
					c-6.1587,5.7664-13.9781,8.6904-23.2388,8.6904c-9.9696,0-18.5188-3.5606-25.422-10.5959
					c-7.0359-7.0366-10.4569-15.4431-10.4569-25.701c0-10.1256,3.4321-18.8277,10.2024-25.8636
					c6.6619-6.922,15.1135-10.4321,25.1198-10.4321c14.8138,0,26.3383,6.8039,32.4506,19.1579l0.714,1.4431l13.1776-4.6394
					l-0.6969-1.7569c-6.8837-17.3529-24.3741-28.1328-45.6453-28.1328c-13.8842,0-25.8301,4.9057-35.5037,14.5812
					c-9.6761,9.6748-14.5824,21.667-14.5824,35.6426c0,13.9756,4.9063,25.9678,14.5824,35.6439
					c9.6748,9.6754,21.7145,14.5811,35.7815,14.5811c14.1803,0,25.9519-4.8728,34.9774-14.4727
					c9.0096-9.4379,13.5785-21.4197,13.5785-35.6122c0-1.9993,0-3.5789-0.1499-4.93L1169.879,474.1366z"/>
				<polygon id="XMLID_20_" class="st0" points="1189.9634,487.0913 1242.8212,487.0913 1242.8212,473.5799 1189.9634,473.5799 
					1189.9634,445.6396 1246.8552,445.6396 1246.8552,432.1282 1175.3384,432.1282 1175.3384,528.9609 1246.9941,528.9609 
					1246.9941,515.3106 1189.9634,515.3106 				"/>
				<path id="XMLID_19_" class="st0" d="M1301.7756,475.2935l-20.3634-4.6017c-8.8159-1.7106-12.5769-5.337-12.5769-12.1256
					c0-8.9804,7.7656-15.0136,19.3253-15.0136c11.8826,0,20.4718,6.5193,22.4164,17.0135l0.3447,1.8623l14.5701-3.3194
					l-0.3582-1.7429c-3.4259-16.6827-17.4868-27.046-36.6953-27.046c-10.2949,0-18.7295,2.6176-25.0564,7.7676
					c-6.5461,5.2072-9.8662,12.1907-9.8662,20.7575c0,13.4158,8.012,22.0149,23.8235,25.5615l21.0006,4.5901
					c10.2708,2.2673,13.7369,5.5051,13.7369,12.8304c0,9.6036-7.9912,15.5692-20.8557,15.5692
					c-14.0365,0-23.5577-7.0725-25.4694-18.9191l-0.3022-1.872l-15.0563,3.0843l0.2157,1.6746
					c1.1879,9.204,5.5667,16.4629,12.9814,21.5513c7.2394,5.2108,16.2076,7.8534,26.6573,7.8534
					c10.8993,0,19.7518-2.6609,26.3126-7.9095c6.7289-5.382,10.1401-12.6458,10.1401-21.589
					C1326.7004,487.5457,1318.3074,478.8041,1301.7756,475.2935z"/>
			</g>
		</g>
	</g>
	<g id="XMLID_13_">
		<path id="XMLID_14_" class="st1" d="M158.805,147.7929l0.0499-0.025l21.6579-12.7253l0.1374-0.0749v247.5331l14.4468,8.3464
			l57.8256,33.3854l0.6238,0.3618l6.5873,3.8051l7.2235-4.1669l0.0125-0.0125l57.8129-33.3729l12.0643-6.9616l2.3828-1.3848
			V134.9677l0.1124,0.0624l21.6828,12.7378l0.0375,0.025v126.8169l14.4097-8.3215V139.5339l-14.4097-8.471l-21.7203-12.7628
			l-0.1124-0.0749l-14.4471-8.4961v264.388l-57.8129,33.3853v0.0125h-0.0125v-33.8344l0.0125-0.0125l21.7204-12.5258l14.4096-8.3338
			V97.0163l-6.6122-3.8925l-7.7974-4.5787v-0.0125l-0.0375-0.0125v255.9171l-21.6829,12.5131v0.0125h-0.0125V4.2419L260.1337,0
			l-7.2111,4.2419v352.7209l-0.025-0.0125l-21.6703-12.5131V88.5201l-0.05,0.025l-14.3971,8.4587v255.8046l14.4471,8.3463
			l21.6703,12.5133l0.025,0.0125v33.8344l-0.025-0.0125l-57.8006-33.3853v-264.388l-0.1121,0.0749l-14.4721,8.4961l-21.7078,12.7628
			l-14.3972,8.471v126.2555l14.3972,8.3213V147.7929z"/>
	</g>
	<path id="XMLID_2_" class="st0" d="M484.4243,346.6328l-0.2619,0.1497v-42.1684l-35.9305,20.7225l-0.1995,0.1247v-42.3804
		l-14.4346,8.3339l-21.7082,12.5256v-41.7691l-36.0175,20.7723l-14.4472,8.3338V403.635l-0.0746,0.0374l-93.9931,54.2324
		l-7.2235,4.1669l-7.2111-4.1669l-94.0677-54.2698V291.3274l-50.465-29.1062v41.7193l-0.237-0.1372l-21.4708-12.3885
		l-14.4343-8.3339v42.3804l-0.2873-0.1622l-21.4084-12.3634l-14.4346-8.3216v42.1684l-0.3369-0.1995l-21.346-12.3138L0,325.9479
		v202.9194l14.4346,8.3216l238.4256,137.6582l0.0624,0.0374l7.1986,4.1546l0.0125,0.0125l7.2235-4.1671l26.3613-15.2204
		l212.1268-122.4752l14.4346-8.3216V325.9479L484.4243,346.6328z M448.0324,342.179l0.1995-0.1124v-0.0125l21.4959-12.3884v161.849
		L267.3572,608.1013v-33.2854l180.6752-104.5351V342.179z M411.8896,320.6457l0.1499-0.0875l21.5583-12.4258V461.922
		l-166.2406,96.1639v-33.5602l144.5324-83.2263V320.6457z M361.3503,420.3899l14.4593-8.3338l0.0625-0.0374V299.6612
		l21.5832-12.4508v145.7054l-25.2885,14.5592l-104.8096,60.3458v-33.1984L361.3503,420.3899z M252.9226,658.167l-0.0624-0.0374
		L14.4346,520.571V350.987l21.6829,12.5006v136.4108l14.4346,8.3214l202.3081,116.5494l0.0624,0.0374V658.167z M252.9226,608.1013
		l-0.0624-0.0373L50.5521,491.5147v-161.849l21.6957,12.5133v128.1143l14.4343,8.3464l166.1781,96.1387l0.0624,0.0375V608.1013z
		 M252.9226,558.0859l-0.0624-0.0375L86.6821,461.922V308.1324l21.7078,12.5133v120.6537l14.4346,8.309l130.0357,74.88
		l0.0624,0.0373V558.0859z M252.9226,507.8207l-0.0624-0.0375l-130.0357-74.8675V287.2104l21.5833,12.4508v112.3575l14.4471,8.3338
		l94.0053,54.2325l0.0624,0.0373V507.8207z M267.3572,658.167v-33.3604l131.4206-75.7159l70.95-40.8709l14.4346-8.3214V363.4876
		l0.2619-0.1497l21.421-12.3509v169.584l-109.1886,63.0029L267.3572,658.167z"/>
</g>
</svg>
